<svg xmlns="http://www.w3.org/2000/svg" version="1.1" xmlns:xlink="http://www.w3.org/1999/xlink" xmlns:svgjs="http://svgjs.com/svgjs" width="512" height="512" x="0" y="0" viewBox="0 0 64 64" style="enable-background:new 0 0 512 512" xml:space="preserve" class=""><g><path d="M5 8c1.654 0 3-1.346 3-3S6.654 2 5 2 2 3.346 2 5s1.346 3 3 3zm0-4c.551 0 1 .449 1 1s-.449 1-1 1-1-.449-1-1 .449-1 1-1zM32 8c1.654 0 3-1.346 3-3s-1.346-3-3-3-3 1.346-3 3 1.346 3 3 3zm0-4c.551 0 1 .449 1 1s-.449 1-1 1-1-.449-1-1 .449-1 1-1zM41 8c1.654 0 3-1.346 3-3s-1.346-3-3-3-3 1.346-3 3 1.346 3 3 3zm0-4c.551 0 1 .449 1 1s-.449 1-1 1-1-.449-1-1 .449-1 1-1zM59 8c1.654 0 3-1.346 3-3s-1.346-3-3-3-3 1.346-3 3 1.346 3 3 3zm0-4c.551 0 1 .449 1 1s-.449 1-1 1-1-.449-1-1 .449-1 1-1zM11 14c0 1.654 1.346 3 3 3s3-1.346 3-3a2.996 2.996 0 0 0-2-2.816V7.816A2.997 2.997 0 0 0 16.816 6h3.369A2.994 2.994 0 0 0 23 8c1.654 0 3-1.346 3-3s-1.346-3-3-3a2.996 2.996 0 0 0-2.816 2h-3.369A2.994 2.994 0 0 0 14 2c-1.654 0-3 1.346-3 3 0 1.302.839 2.402 2 2.816v3.369A2.994 2.994 0 0 0 11 14zm3 1c-.551 0-1-.449-1-1s.449-1 1-1 1 .449 1 1-.449 1-1 1zm9-11c.551 0 1 .449 1 1s-.449 1-1 1-1-.449-1-1 .449-1 1-1zm-9 0c.551 0 1 .449 1 1s-.449 1-1 1-1-.449-1-1 .449-1 1-1z" fill="#b9b9b9" data-original="#000000" class=""></path><path d="M23 11c-1.654 0-3 1.346-3 3s1.346 3 3 3 3-1.346 3-3-1.346-3-3-3zm0 4c-.551 0-1-.449-1-1s.449-1 1-1 1 .449 1 1-.449 1-1 1zM53 14c0-1.654-1.346-3-3-3s-3 1.346-3 3 1.346 3 3 3 3-1.346 3-3zm-4 0c0-.551.449-1 1-1s1 .449 1 1-.449 1-1 1-1-.449-1-1zM2 23c0 1.654 1.346 3 3 3s3-1.346 3-3a2.996 2.996 0 0 0-2-2.816v-3.369A2.994 2.994 0 0 0 8 14c0-1.654-1.346-3-3-3s-3 1.346-3 3c0 1.302.839 2.402 2 2.816v3.369A2.994 2.994 0 0 0 2 23zm3 1c-.551 0-1-.449-1-1s.449-1 1-1 1 .449 1 1-.449 1-1 1zm0-11c.551 0 1 .449 1 1s-.449 1-1 1-1-.449-1-1 .449-1 1-1zM14 26c1.654 0 3-1.346 3-3s-1.346-3-3-3-3 1.346-3 3 1.346 3 3 3zm0-4c.551 0 1 .449 1 1s-.449 1-1 1-1-.449-1-1 .449-1 1-1zM41 26c1.654 0 3-1.346 3-3s-1.346-3-3-3-3 1.346-3 3 1.346 3 3 3zm0-4c.551 0 1 .449 1 1s-.449 1-1 1-1-.449-1-1 .449-1 1-1zM59 20c-1.654 0-3 1.346-3 3s1.346 3 3 3 3-1.346 3-3-1.346-3-3-3zm0 4c-.551 0-1-.449-1-1s.449-1 1-1 1 .449 1 1-.449 1-1 1z" fill="#b9b9b9" data-original="#000000" class=""></path><path d="M14 35c1.654 0 3-1.346 3-3a2.95 2.95 0 0 0-.301-1.285l5.015-5.015c.392.187.824.3 1.286.3s.894-.113 1.285-.301l5.015 5.015c-.187.392-.3.824-.3 1.286 0 1.302.839 2.402 2 2.816v3.369a2.996 2.996 0 0 0-2 2.816c0 1.654 1.346 3 3 3a2.996 2.996 0 0 0 2.816-2h3.369a2.996 2.996 0 0 0 2.816 2c1.654 0 3-1.346 3-3s-1.346-3-3-3a2.996 2.996 0 0 0-2.816 2h-3.369A2.997 2.997 0 0 0 33 38.185v-3.369A2.996 2.996 0 0 0 35 32c0-1.654-1.346-3-3-3a2.95 2.95 0 0 0-1.285.301L25.7 24.286c.044-.093.082-.188.116-.285h3.369a2.996 2.996 0 0 0 2.816 2c1.654 0 3-1.346 3-3a2.996 2.996 0 0 0-2-2.816v-3.369A2.997 2.997 0 0 0 34.817 15h3.369a2.996 2.996 0 0 0 2.816 2 2.95 2.95 0 0 0 1.285-.301l5.015 5.015A2.945 2.945 0 0 0 47 23c0 1.654 1.346 3 3 3s3-1.346 3-3a2.95 2.95 0 0 0-.301-1.285l5.015-5.015c.392.187.824.3 1.286.3 1.654 0 3-1.346 3-3s-1.346-3-3-3a2.95 2.95 0 0 0-1.285.301L52.7 6.286c.187-.392.3-.824.3-1.286 0-1.654-1.346-3-3-3s-3 1.346-3 3 1.346 3 3 3a2.95 2.95 0 0 0 1.285-.301l5.015 5.015c-.187.392-.3.824-.3 1.286s.113.894.301 1.285L51.286 20.3c-.392-.187-.824-.3-1.286-.3s-.894.113-1.285.301L43.7 15.286c.187-.392.3-.824.3-1.286 0-1.654-1.346-3-3-3a2.996 2.996 0 0 0-2.816 2h-3.369a2.996 2.996 0 0 0-2.816-2c-1.654 0-3 1.346-3 3 0 1.302.839 2.402 2 2.816v3.369a2.997 2.997 0 0 0-1.816 1.816h-3.369a2.996 2.996 0 0 0-2.816-2c-1.654 0-3 1.346-3 3 0 .462.113.894.301 1.285l-5.015 5.015A2.943 2.943 0 0 0 14 29c-1.654 0-3 1.346-3 3s1.346 3 3 3zm18 7c-.551 0-1-.449-1-1s.449-1 1-1 1 .449 1 1-.449 1-1 1zm9-2c.551 0 1 .449 1 1s-.449 1-1 1-1-.449-1-1 .449-1 1-1zm-8-8c0 .551-.449 1-1 1s-1-.449-1-1 .449-1 1-1 1 .449 1 1zm27-18c0 .551-.449 1-1 1s-1-.449-1-1 .449-1 1-1 1 .449 1 1zM49 5c0-.551.449-1 1-1s1 .449 1 1-.449 1-1 1-1-.449-1-1zm2 18c0 .551-.449 1-1 1s-1-.449-1-1 .449-1 1-1 1 .449 1 1zM41 13c.551 0 1 .449 1 1s-.449 1-1 1-1-.449-1-1 .449-1 1-1zm-9 0c.551 0 1 .449 1 1s-.449 1-1 1-1-.449-1-1 .449-1 1-1zm0 9c.551 0 1 .449 1 1s-.449 1-1 1-1-.449-1-1 .449-1 1-1zm-9 0c.551 0 1 .449 1 1s-.449 1-1 1-1-.449-1-1 .449-1 1-1zm-9 9c.551 0 1 .449 1 1s-.449 1-1 1-1-.449-1-1 .449-1 1-1z" fill="#b9b9b9" data-original="#000000" class=""></path><path d="M23 29c-1.654 0-3 1.346-3 3s1.346 3 3 3 3-1.346 3-3-1.346-3-3-3zm0 4c-.551 0-1-.449-1-1s.449-1 1-1 1 .449 1 1-.449 1-1 1zM41 35c1.654 0 3-1.346 3-3s-1.346-3-3-3-3 1.346-3 3 1.346 3 3 3zm0-4c.551 0 1 .449 1 1s-.449 1-1 1-1-.449-1-1 .449-1 1-1zM50 35c1.654 0 3-1.346 3-3s-1.346-3-3-3-3 1.346-3 3 1.346 3 3 3zm0-4c.551 0 1 .449 1 1s-.449 1-1 1-1-.449-1-1 .449-1 1-1z" fill="#b9b9b9" data-original="#000000" class=""></path><path d="M59 29c-1.654 0-3 1.346-3 3 0 .462.113.894.301 1.285L51.286 38.3A2.972 2.972 0 0 0 50 38c-1.654 0-3 1.346-3 3 0 1.302.839 2.402 2 2.816v3.369a2.996 2.996 0 0 0-2 2.816c0 .462.113.894.301 1.285l-5.015 5.015A2.959 2.959 0 0 0 41 56c-1.654 0-3 1.346-3 3s1.346 3 3 3 3-1.346 3-3a2.95 2.95 0 0 0-.301-1.285l5.015-5.015c.392.187.824.3 1.286.3 1.654 0 3-1.346 3-3a2.996 2.996 0 0 0-2-2.816v-3.369a2.996 2.996 0 0 0 2-2.816 2.95 2.95 0 0 0-.301-1.285l5.015-5.015c.392.188.824.301 1.286.301 1.654 0 3-1.346 3-3s-1.346-3-3-3zM41 60c-.551 0-1-.449-1-1s.449-1 1-1 1 .449 1 1-.449 1-1 1zm9-9c-.551 0-1-.449-1-1s.449-1 1-1 1 .449 1 1-.449 1-1 1zm0-9c-.551 0-1-.449-1-1s.449-1 1-1 1 .449 1 1-.449 1-1 1zm9-9c-.551 0-1-.449-1-1s.449-1 1-1 1 .449 1 1-.449 1-1 1zM2 41c0 1.654 1.346 3 3 3a2.996 2.996 0 0 0 2.816-2h3.369a2.996 2.996 0 0 0 2.816 2c1.654 0 3-1.346 3-3s-1.346-3-3-3a2.996 2.996 0 0 0-2.816 2H7.816A2.997 2.997 0 0 0 6 38.184v-3.369A2.994 2.994 0 0 0 8 32c0-1.654-1.346-3-3-3s-3 1.346-3 3c0 1.302.839 2.402 2 2.816v3.369A2.994 2.994 0 0 0 2 41zm3 1c-.551 0-1-.449-1-1s.449-1 1-1 1 .449 1 1-.449 1-1 1zm9-2c.551 0 1 .449 1 1s-.449 1-1 1-1-.449-1-1 .449-1 1-1zm-9-9c.551 0 1 .449 1 1s-.449 1-1 1-1-.449-1-1 .449-1 1-1zM23 38c-1.654 0-3 1.346-3 3s1.346 3 3 3 3-1.346 3-3-1.346-3-3-3zm0 4c-.551 0-1-.449-1-1s.449-1 1-1 1 .449 1 1-.449 1-1 1z" fill="#b9b9b9" data-original="#000000" class=""></path><path d="M59 38c-1.654 0-3 1.346-3 3s1.346 3 3 3 3-1.346 3-3-1.346-3-3-3zm0 4c-.551 0-1-.449-1-1s.449-1 1-1 1 .449 1 1-.449 1-1 1zM5 53c1.654 0 3-1.346 3-3s-1.346-3-3-3-3 1.346-3 3 1.346 3 3 3zm0-4c.551 0 1 .449 1 1s-.449 1-1 1-1-.449-1-1 .449-1 1-1zM23 47c-1.654 0-3 1.346-3 3s1.346 3 3 3 3-1.346 3-3-1.346-3-3-3zm0 4c-.551 0-1-.449-1-1s.449-1 1-1 1 .449 1 1-.449 1-1 1zM32 47c-1.654 0-3 1.346-3 3s1.346 3 3 3 3-1.346 3-3-1.346-3-3-3zm0 4c-.551 0-1-.449-1-1s.449-1 1-1 1 .449 1 1-.449 1-1 1zM41 53c1.654 0 3-1.346 3-3s-1.346-3-3-3-3 1.346-3 3 1.346 3 3 3zm0-4c.551 0 1 .449 1 1s-.449 1-1 1-1-.449-1-1 .449-1 1-1zM62 50c0-1.654-1.346-3-3-3s-3 1.346-3 3c0 1.302.839 2.402 2 2.816v3.369a2.996 2.996 0 0 0-2 2.816c0 1.654 1.346 3 3 3s3-1.346 3-3a2.996 2.996 0 0 0-2-2.816v-3.369A2.996 2.996 0 0 0 62 50zm-3-1c.551 0 1 .449 1 1s-.449 1-1 1-1-.449-1-1 .449-1 1-1zm0 11c-.551 0-1-.449-1-1s.449-1 1-1 1 .449 1 1-.449 1-1 1z" fill="#b9b9b9" data-original="#000000" class=""></path><path d="M5 62c1.654 0 3-1.346 3-3a2.95 2.95 0 0 0-.301-1.285l5.015-5.015c.392.187.824.3 1.286.3s.894-.113 1.285-.301l5.015 5.015c-.187.392-.3.824-.3 1.286 0 1.654 1.346 3 3 3s3-1.346 3-3-1.346-3-3-3a2.95 2.95 0 0 0-1.285.301L16.7 51.286c.187-.392.3-.824.3-1.286 0-1.654-1.346-3-3-3s-3 1.346-3 3c0 .462.113.894.301 1.285L6.286 56.3A2.972 2.972 0 0 0 5 56c-1.654 0-3 1.346-3 3s1.346 3 3 3zm19-3c0 .551-.449 1-1 1s-1-.449-1-1 .449-1 1-1 1 .449 1 1zM14 49c.551 0 1 .449 1 1s-.449 1-1 1-1-.449-1-1 .449-1 1-1zm-9 9c.551 0 1 .449 1 1s-.449 1-1 1-1-.449-1-1 .449-1 1-1z" fill="#b9b9b9" data-original="#000000" class=""></path><path d="M11 59c0 1.654 1.346 3 3 3s3-1.346 3-3-1.346-3-3-3-3 1.346-3 3zm4 0c0 .551-.449 1-1 1s-1-.449-1-1 .449-1 1-1 1 .449 1 1zM32 56c-1.654 0-3 1.346-3 3s1.346 3 3 3 3-1.346 3-3-1.346-3-3-3zm0 4c-.551 0-1-.449-1-1s.449-1 1-1 1 .449 1 1-.449 1-1 1zM50 56c-1.654 0-3 1.346-3 3s1.346 3 3 3 3-1.346 3-3-1.346-3-3-3zm0 4c-.551 0-1-.449-1-1s.449-1 1-1 1 .449 1 1-.449 1-1 1z" fill="#b9b9b9" data-original="#000000" class=""></path></g></svg>